<mxfile host="app.diagrams.net" modified="2023-06-04T08:35:30.339Z" agent="Mozilla/5.0 (Windows NT 10.0; Win64; x64) AppleWebKit/537.36 (KHTML, like Gecko) Chrome/113.0.0.0 Safari/537.36 Edg/113.0.1774.57" etag="sYmJQ5a8yPmsdoW_N-Js" version="21.3.7" type="github">
  <diagram id="prtHgNgQTEPvFCAcTncT" name="Page-1">
    <mxGraphModel dx="1513" dy="1011" grid="0" gridSize="10" guides="1" tooltips="1" connect="1" arrows="1" fold="1" page="1" pageScale="1" pageWidth="827" pageHeight="1169" math="0" shadow="0">
      <root>
        <mxCell id="0" />
        <mxCell id="1" parent="0" />
        <mxCell id="tbfAWWs00e76JzX_DZ6d-10" style="edgeStyle=orthogonalEdgeStyle;rounded=0;orthogonalLoop=1;jettySize=auto;html=1;entryX=0;entryY=0.5;entryDx=0;entryDy=0;" edge="1" parent="1" source="tbfAWWs00e76JzX_DZ6d-1" target="tbfAWWs00e76JzX_DZ6d-9">
          <mxGeometry relative="1" as="geometry" />
        </mxCell>
        <mxCell id="tbfAWWs00e76JzX_DZ6d-15" style="edgeStyle=orthogonalEdgeStyle;rounded=0;orthogonalLoop=1;jettySize=auto;html=1;curved=1;entryX=0;entryY=0.5;entryDx=0;entryDy=0;" edge="1" parent="1" target="tbfAWWs00e76JzX_DZ6d-3">
          <mxGeometry relative="1" as="geometry">
            <mxPoint x="300" y="213" as="targetPoint" />
            <mxPoint x="85" y="127" as="sourcePoint" />
            <Array as="points">
              <mxPoint x="138" y="221" />
              <mxPoint x="301" y="221" />
            </Array>
          </mxGeometry>
        </mxCell>
        <mxCell id="tbfAWWs00e76JzX_DZ6d-1" value="&lt;b&gt;&lt;font style=&quot;font-size: 21px;&quot;&gt;CBS&lt;/font&gt;&lt;/b&gt;" style="rounded=1;whiteSpace=wrap;html=1;fillColor=#dae8fc;strokeColor=#6c8ebf;" vertex="1" parent="1">
          <mxGeometry x="96" y="101" width="83" height="45" as="geometry" />
        </mxCell>
        <mxCell id="tbfAWWs00e76JzX_DZ6d-14" style="edgeStyle=orthogonalEdgeStyle;rounded=0;orthogonalLoop=1;jettySize=auto;html=1;curved=1;entryX=0.497;entryY=0.997;entryDx=0;entryDy=0;entryPerimeter=0;" edge="1" parent="1" source="tbfAWWs00e76JzX_DZ6d-3" target="tbfAWWs00e76JzX_DZ6d-5">
          <mxGeometry relative="1" as="geometry">
            <mxPoint x="704.5" y="227.5" as="targetPoint" />
            <Array as="points">
              <mxPoint x="572" y="228" />
            </Array>
          </mxGeometry>
        </mxCell>
        <mxCell id="tbfAWWs00e76JzX_DZ6d-3" value="&lt;b&gt;&lt;font style=&quot;font-size: 21px;&quot;&gt;CBS&lt;/font&gt;&lt;/b&gt;" style="rounded=1;whiteSpace=wrap;html=1;fillColor=#dae8fc;strokeColor=#6c8ebf;" vertex="1" parent="1">
          <mxGeometry x="308" y="197" width="83" height="47" as="geometry" />
        </mxCell>
        <mxCell id="tbfAWWs00e76JzX_DZ6d-16" style="edgeStyle=orthogonalEdgeStyle;rounded=0;orthogonalLoop=1;jettySize=auto;html=1;" edge="1" parent="1" source="tbfAWWs00e76JzX_DZ6d-4">
          <mxGeometry relative="1" as="geometry">
            <mxPoint x="800" y="123.5" as="targetPoint" />
          </mxGeometry>
        </mxCell>
        <mxCell id="tbfAWWs00e76JzX_DZ6d-4" value="&lt;b&gt;&lt;font style=&quot;font-size: 21px;&quot;&gt;CBS&lt;/font&gt;&lt;/b&gt;" style="rounded=1;whiteSpace=wrap;html=1;fillColor=#dae8fc;strokeColor=#6c8ebf;" vertex="1" parent="1">
          <mxGeometry x="675" y="100" width="97" height="47" as="geometry" />
        </mxCell>
        <mxCell id="tbfAWWs00e76JzX_DZ6d-12" style="edgeStyle=orthogonalEdgeStyle;rounded=0;orthogonalLoop=1;jettySize=auto;html=1;entryX=0;entryY=0.5;entryDx=0;entryDy=0;" edge="1" parent="1" source="tbfAWWs00e76JzX_DZ6d-5" target="tbfAWWs00e76JzX_DZ6d-4">
          <mxGeometry relative="1" as="geometry" />
        </mxCell>
        <mxCell id="tbfAWWs00e76JzX_DZ6d-5" value="&lt;b&gt;&lt;font style=&quot;font-size: 21px;&quot;&gt;Concat&lt;/font&gt;&lt;/b&gt;" style="html=1;whiteSpace=wrap;aspect=fixed;shape=isoRectangle;fillColor=#f5f5f5;fontColor=#333333;strokeColor=#666666;" vertex="1" parent="1">
          <mxGeometry x="508" y="84" width="128.67" height="77.2" as="geometry" />
        </mxCell>
        <mxCell id="tbfAWWs00e76JzX_DZ6d-11" style="edgeStyle=orthogonalEdgeStyle;rounded=0;orthogonalLoop=1;jettySize=auto;html=1;" edge="1" parent="1" source="tbfAWWs00e76JzX_DZ6d-9">
          <mxGeometry relative="1" as="geometry">
            <mxPoint x="502" y="123.5" as="targetPoint" />
          </mxGeometry>
        </mxCell>
        <mxCell id="tbfAWWs00e76JzX_DZ6d-9" value="&lt;font style=&quot;font-size: 21px;&quot;&gt;&lt;b&gt;RepLK&lt;/b&gt;&lt;/font&gt;" style="rounded=1;whiteSpace=wrap;html=1;fillColor=#e1d5e7;strokeColor=#9673a6;" vertex="1" parent="1">
          <mxGeometry x="262" y="79.5" width="155" height="88" as="geometry" />
        </mxCell>
        <mxCell id="tbfAWWs00e76JzX_DZ6d-19" value="" style="endArrow=classic;html=1;rounded=0;" edge="1" parent="1">
          <mxGeometry width="50" height="50" relative="1" as="geometry">
            <mxPoint x="44" y="128" as="sourcePoint" />
            <mxPoint x="96" y="128" as="targetPoint" />
          </mxGeometry>
        </mxCell>
        <mxCell id="tbfAWWs00e76JzX_DZ6d-23" value="" style="rounded=1;whiteSpace=wrap;html=1;fillColor=#fad9d5;strokeColor=#ae4132;" vertex="1" parent="1">
          <mxGeometry x="53" y="352" width="762" height="258" as="geometry" />
        </mxCell>
        <mxCell id="tbfAWWs00e76JzX_DZ6d-24" style="edgeStyle=orthogonalEdgeStyle;rounded=0;orthogonalLoop=1;jettySize=auto;html=1;entryX=0;entryY=0.5;entryDx=0;entryDy=0;" edge="1" parent="1" source="tbfAWWs00e76JzX_DZ6d-26" target="tbfAWWs00e76JzX_DZ6d-34">
          <mxGeometry relative="1" as="geometry" />
        </mxCell>
        <mxCell id="tbfAWWs00e76JzX_DZ6d-25" style="edgeStyle=orthogonalEdgeStyle;rounded=0;orthogonalLoop=1;jettySize=auto;html=1;curved=1;entryX=0;entryY=0.5;entryDx=0;entryDy=0;" edge="1" parent="1" target="tbfAWWs00e76JzX_DZ6d-28">
          <mxGeometry relative="1" as="geometry">
            <mxPoint x="309" y="541.5" as="targetPoint" />
            <mxPoint x="94" y="455.5" as="sourcePoint" />
            <Array as="points">
              <mxPoint x="147" y="549.5" />
              <mxPoint x="310" y="549.5" />
            </Array>
          </mxGeometry>
        </mxCell>
        <mxCell id="tbfAWWs00e76JzX_DZ6d-26" value="&lt;b&gt;&lt;font style=&quot;font-size: 21px;&quot;&gt;CBS&lt;/font&gt;&lt;/b&gt;" style="rounded=1;whiteSpace=wrap;html=1;fillColor=#dae8fc;strokeColor=#6c8ebf;" vertex="1" parent="1">
          <mxGeometry x="105" y="429.5" width="83" height="45" as="geometry" />
        </mxCell>
        <mxCell id="tbfAWWs00e76JzX_DZ6d-27" style="edgeStyle=orthogonalEdgeStyle;rounded=0;orthogonalLoop=1;jettySize=auto;html=1;curved=1;entryX=0.497;entryY=0.997;entryDx=0;entryDy=0;entryPerimeter=0;" edge="1" parent="1" source="tbfAWWs00e76JzX_DZ6d-28" target="tbfAWWs00e76JzX_DZ6d-32">
          <mxGeometry relative="1" as="geometry">
            <mxPoint x="713.5" y="556" as="targetPoint" />
            <Array as="points">
              <mxPoint x="581" y="556.5" />
            </Array>
          </mxGeometry>
        </mxCell>
        <mxCell id="tbfAWWs00e76JzX_DZ6d-28" value="&lt;b&gt;&lt;font style=&quot;font-size: 21px;&quot;&gt;CBS&lt;/font&gt;&lt;/b&gt;" style="rounded=1;whiteSpace=wrap;html=1;fillColor=#dae8fc;strokeColor=#6c8ebf;" vertex="1" parent="1">
          <mxGeometry x="317" y="525.5" width="83" height="47" as="geometry" />
        </mxCell>
        <mxCell id="tbfAWWs00e76JzX_DZ6d-29" style="edgeStyle=orthogonalEdgeStyle;rounded=0;orthogonalLoop=1;jettySize=auto;html=1;" edge="1" parent="1" source="tbfAWWs00e76JzX_DZ6d-30">
          <mxGeometry relative="1" as="geometry">
            <mxPoint x="809" y="452" as="targetPoint" />
          </mxGeometry>
        </mxCell>
        <mxCell id="tbfAWWs00e76JzX_DZ6d-30" value="&lt;b&gt;&lt;font style=&quot;font-size: 21px;&quot;&gt;CBS&lt;/font&gt;&lt;/b&gt;" style="rounded=1;whiteSpace=wrap;html=1;fillColor=#dae8fc;strokeColor=#6c8ebf;" vertex="1" parent="1">
          <mxGeometry x="684" y="428.5" width="97" height="47" as="geometry" />
        </mxCell>
        <mxCell id="tbfAWWs00e76JzX_DZ6d-31" style="edgeStyle=orthogonalEdgeStyle;rounded=0;orthogonalLoop=1;jettySize=auto;html=1;entryX=0;entryY=0.5;entryDx=0;entryDy=0;" edge="1" parent="1" source="tbfAWWs00e76JzX_DZ6d-32" target="tbfAWWs00e76JzX_DZ6d-30">
          <mxGeometry relative="1" as="geometry" />
        </mxCell>
        <mxCell id="tbfAWWs00e76JzX_DZ6d-32" value="&lt;b&gt;&lt;font style=&quot;font-size: 21px;&quot;&gt;Concat&lt;/font&gt;&lt;/b&gt;" style="html=1;whiteSpace=wrap;aspect=fixed;shape=isoRectangle;fillColor=#f5f5f5;fontColor=#333333;strokeColor=#666666;" vertex="1" parent="1">
          <mxGeometry x="517" y="412.5" width="128.67" height="77.2" as="geometry" />
        </mxCell>
        <mxCell id="tbfAWWs00e76JzX_DZ6d-33" style="edgeStyle=orthogonalEdgeStyle;rounded=0;orthogonalLoop=1;jettySize=auto;html=1;" edge="1" parent="1" source="tbfAWWs00e76JzX_DZ6d-34">
          <mxGeometry relative="1" as="geometry">
            <mxPoint x="511" y="452" as="targetPoint" />
          </mxGeometry>
        </mxCell>
        <mxCell id="tbfAWWs00e76JzX_DZ6d-34" value="&lt;font style=&quot;font-size: 21px;&quot;&gt;&lt;b&gt;RepLK&lt;/b&gt;&lt;/font&gt;" style="rounded=1;whiteSpace=wrap;html=1;fillColor=#e1d5e7;strokeColor=#9673a6;" vertex="1" parent="1">
          <mxGeometry x="271" y="408" width="155" height="88" as="geometry" />
        </mxCell>
        <mxCell id="tbfAWWs00e76JzX_DZ6d-35" value="" style="endArrow=classic;html=1;rounded=0;" edge="1" parent="1">
          <mxGeometry width="50" height="50" relative="1" as="geometry">
            <mxPoint x="53" y="456.5" as="sourcePoint" />
            <mxPoint x="105" y="456.5" as="targetPoint" />
          </mxGeometry>
        </mxCell>
        <mxCell id="tbfAWWs00e76JzX_DZ6d-36" style="edgeStyle=orthogonalEdgeStyle;rounded=0;orthogonalLoop=1;jettySize=auto;html=1;exitX=0.5;exitY=1;exitDx=0;exitDy=0;" edge="1" parent="1" source="tbfAWWs00e76JzX_DZ6d-28" target="tbfAWWs00e76JzX_DZ6d-28">
          <mxGeometry relative="1" as="geometry" />
        </mxCell>
      </root>
    </mxGraphModel>
  </diagram>
</mxfile>
